# xmcd
#
# Track frame offsets: 
#        150
#        12453
#        25198
#        35396
#        50961
#        64078
#        77051
#        88044
#        100036
#        110290
#        122672
#        135582
#        148309
#
# Disc length: 2145 seconds
#
# Revision: 0
# Processed by: cddbd v1.5.2PL0 Copyright (c) Steve Scherf et al.
# Submitted via: ExactAudioCopy v1.0b1
#
DISCID=b0085f0d
DTITLE=Dee Daume - I'm No Angel
DYEAR=2001
DGENRE=Country
TTITLE0=I'm No Angel
TTITLE1=Why Ask Why
TTITLE2=I May Be From the Country
TTITLE3=Freedom For All
TTITLE4=If I Never See Tomorrow
TTITLE5=What Would You Say
TTITLE6=Living With Dreams
TTITLE7=I Was You But Now I'm Me
TTITLE8=My Man Must Stand Tall
TTITLE9=Walking You Out of My Mind
TTITLE10=I'm Not Alone
TTITLE11=I Can Put You To Sleep
TTITLE12=You're An Inspiration
EXTD=
EXTT0=
EXTT1=
EXTT2=
EXTT3=
EXTT4=
EXTT5=
EXTT6=
EXTT7=
EXTT8=
EXTT9=
EXTT10=
EXTT11=
EXTT12=
PLAYORDER=
